{"title":"Horrors of Malformed Men (1969) aka Kyôfu kikei ningen: Ed","uid":9355700,"size":1609967632,"categoryP":"video","categoryS":"movies","magnet":"?xt=urn:btih:9c16f2cb02820d8f8fc0e1e19a3f19307e0d731c&amp;dn=Horrors+of+Malformed+Men+%281969%29+aka+Ky%26ocirc%3Bfu+kikei+ningen%3A+Ed&amp;tr=udp%3A%2F%2Ftracker.openbittorrent.com%3A80&amp;tr=udp%3A%2F%2Fopen.demonii.com%3A1337&amp;tr=udp%3A%2F%2Ftracker.coppersurfer.tk%3A6969&amp;tr=udp%3A%2F%2Fexodus.desync.com%3A6969","seeders":0,"leechers":0,"uploader":"mago1974","files":4,"time":1387211721,"description":"General\nUnique ID                      : 236329131110821781023526038435489511081 (0xB1CB55C4C55659BC809D1DB182A9F6A9)\nComplete name                  : F:Torrents MKO1969. Horrors of Malformed MenHorrors of Malformed Men (1969), Teruo Ishi.mkv\nFormat                         : Matroska\nFormat version                 : Version 2\nFile size                      : 1.50 GiB\nDuration                       : 1h 39mn\nOverall bit rate               : 2 162 Kbps\nEncoded date                   : UTC 2011-10-03 06:59:02\nWriting application            : mkvmerge v4.3.0 ('Escape from the Island') built on Sep  5 2010 10:30:51\nWriting library                : libebml v1.0.0 + libmatroska v1.0.0\n\nVideo\nID                             : 1\nFormat                         : AVC\nFormat/Info                    : Advanced Video Codec\nFormat profile                 : &lt;a class=&quot;__cf_email__&quot; href=&quot;/cdn-cgi/l/email-protection&quot; data-cfemail=&quot;5119383639111d627f61&quot;&gt;[email&amp;#160;protected]&lt;/a&gt;&lt;script data-cfhash='f9e31' type=&quot;text/javascript&quot;&gt;\n/* &lt;![CDATA[ */!function(){try{var t=&quot;currentScript&quot;in document?document.currentScript:function(){for(var t=document.getElementsByTagName(&quot;script&quot;),e=t.length;e--;)if(t[e].getAttribute(&quot;data-cfhash&quot;))return t[e]}();if(t&amp;&amp;t.previousSibling){var e,r,n,i,c=t.previousSibling,a=c.getAttribute(&quot;data-cfemail&quot;);if(a){for(e=&quot;&quot;,r=parseInt(a.substr(0,2),16),n=2;a.length-n;n+=2)i=parseInt(a.substr(n,2),16)^r,e+=String.fromCharCode(i);e=document.createTextNode(e),c.parentNode.replaceChild(e,c)}t.parentNode.removeChild(t);}}catch(u){}}()/* ]]&gt; */&lt;/script&gt;\nFormat settings, CABAC         : Yes\nFormat settings, ReFrames      : 8 frames\nCodec ID                       : V_MPEG4/ISO/AVC\nDuration                       : 1h 39mn\nBit rate                       : 1 776 Kbps\nWidth                          : 720 pixels\nHeight                         : 304 pixels\nDisplay aspect ratio           : 2.35:1\nFrame rate mode                : Constant\nFrame rate                     : 23.976 fps\nColor space                    : YUV\nChroma subsampling             : 4:2:0\nBit depth                      : 8 bits\nScan type                      : Progressive\nBits/(Pixel*Frame)             : 0.338\nStream size                    : 1.20 GiB (80%)\nWriting library                : x264 core 105 r1724 b02df7b\nEncoding settings              : cabac=1 / ref=8 / deblock=1:-1:-1 / analyse=0x3:0x133 / me=umh / subme=9 / psy=1 / psy_rd=1.00:0.15 / mixed_ref=1 / me_range=16 / chroma_me=1 / trellis=2 / 8x8dct=1 / cqm=0 / deadzone=21,11 / fast_pskip=1 / chroma_qp_offset=-3 / threads=6 / sliced_threads=0 / nr=0 / decimate=1 / interlaced=0 / constrained_intra=0 / bframes=3 / b_pyramid=2 / b_adapt=2 / b_bias=0 / direct=3 / weightb=1 / open_gop=0 / weightp=2 / keyint=250 / keyint_min=23 / scenecut=40 / intra_refresh=0 / rc_lookahead=60 / rc=2pass / mbtree=1 / bitrate=1776 / ratetol=1.0 / qcomp=0.60 / qpmin=10 / qpmax=51 / qpstep=4 / cplxblur=20.0 / qblur=0.5 / ip_ratio=1.40 / aq=1:1.00\nDefault                        : Yes\nForced                         : No\n\nAudio #1\nID                             : 2\nFormat                         : AC-3\nFormat/Info                    : Audio Coding 3\nMode extension                 : CM (complete main)\nFormat settings, Endianness    : Big\nCodec ID                       : A_AC3\nDuration                       : 1h 39mn\nBit rate mode                  : Constant\nBit rate                       : 192 Kbps\nChannel count                  : 2 channels\nChannel positions              : Front: L R\nSampling rate                  : 48.0 KHz\nBit depth                      : 16 bits\nCompression mode               : Lossy\nStream size                    : 136 MiB (9%)\nLanguage                       : Japanese\nDefault                        : Yes\nForced                         : No\n\nAudio #2\nID                             : 3\nFormat                         : AC-3\nFormat/Info                    : Audio Coding 3\nMode extension                 : CM (complete main)\nFormat settings, Endianness    : Big\nCodec ID                       : A_AC3\nDuration                       : 1h 39mn\nBit rate mode                  : Constant\nBit rate                       : 192 Kbps\nChannel count                  : 2 channels\nChannel positions              : Front: L R\nSampling rate                  : 48.0 KHz\nBit depth                      : 16 bits\nCompression mode               : Lossy\nStream size                    : 136 MiB (9%)\nLanguage                       : English\nDefault                        : No\nForced                         : No\n","torrent":{"xt":"urn:btih:9c16f2cb02820d8f8fc0e1e19a3f19307e0d731c","amp;dn":"Horrors+of+Malformed+Men+%281969%29+aka+Ky%26ocirc%3Bfu+kikei+ningen%3A+Ed","amp;tr":["udp%3A%2F%2Ftracker.openbittorrent.com%3A80","udp%3A%2F%2Fopen.demonii.com%3A1337","udp%3A%2F%2Ftracker.coppersurfer.tk%3A6969","udp%3A%2F%2Fexodus.desync.com%3A6969"],"infoHash":"9c16f2cb02820d8f8fc0e1e19a3f19307e0d731c","infoHashBuffer":{"type":"Buffer","data":[156,22,242,203,2,130,13,143,143,192,225,225,154,63,25,48,126,13,115,28]},"announce":[],"urlList":[]}}